<svg width="800" height="600" viewBox="0 0 800 600" xmlns="http://www.w3.org/2000/svg" role="img" aria-labelledby="title">
          <title>Candlelit supper club</title>
          <defs>
            <linearGradient id="bg" x1="0" y1="0" x2="0" y2="1">
              <stop offset="0%" stop-color="#1a1029" />
              <stop offset="100%" stop-color="#f2a97d" />
            </linearGradient>
          </defs>
          <rect width="800" height="600" fill="url(#bg)" />
          <rect y="320" width="800" height="280" fill="#f8e1d2" opacity="0.4" />
          <g transform="translate(400, 410)">
  <ellipse cx="0" cy="0" rx="220" ry="70" fill="rgba(63, 39, 35, 0.6)" />
  <ellipse cx="0" cy="-20" rx="200" ry="60" fill="rgba(255, 244, 214, 0.85)" />
</g>
<g transform="translate(400, 330)" fill="#ffe0b2" opacity="0.85">
  <rect x="-60" y="-40" width="12" height="40" rx="6" />
  <circle cx="-54" cy="-44" r="8" fill="#ffd29d" />
  <rect x="0" y="-40" width="12" height="40" rx="6" />
  <circle cx="6" cy="-44" r="8" fill="#ffd29d" />
  <rect x="60" y="-40" width="12" height="40" rx="6" />
  <circle cx="66" cy="-44" r="8" fill="#ffd29d" />
</g>
<path d="M 0 0 Q 80 140 120 0 V 600 H 0 Z" fill="rgba(111, 52, 84, 0.45)" />
<path d="M 800 0 Q 720 140 680 0 V 600 H 800 Z" fill="rgba(111, 52, 84, 0.45)" />
          <g transform="translate(200, 250)">
  <circle cx="0" cy="-70" r="34" fill="#ffd6ec" opacity="0.9" />
  <path d="M -42 60 C -30 10 -18 -30 0 -30 C 18 -30 30 10 42 60 Z" fill="#f472b6" opacity="0.92" />
  <path d="M -50 50 Q 0 -10 50 50 Z" fill="#ffd6ec" opacity="0.6" />
</g>
<g transform="translate(340, 250)">
  <circle cx="0" cy="-70" r="34" fill="#dceaff" opacity="0.9" />
  <path d="M -42 60 C -30 10 -18 -30 0 -30 C 18 -30 30 10 42 60 Z" fill="#60a5fa" opacity="0.92" />
  <path d="M -50 50 Q 0 -10 50 50 Z" fill="#dceaff" opacity="0.6" />
</g>
<g transform="translate(480, 250)">
  <circle cx="0" cy="-70" r="34" fill="#fff1ba" opacity="0.9" />
  <path d="M -42 60 C -30 10 -18 -30 0 -30 C 18 -30 30 10 42 60 Z" fill="#facc15" opacity="0.92" />
  <path d="M -50 50 Q 0 -10 50 50 Z" fill="#fff1ba" opacity="0.6" />
</g>
        </svg>