<svg width="800" height="600" viewBox="0 0 800 600" xmlns="http://www.w3.org/2000/svg" role="img" aria-labelledby="title">
          <title>Coastal dinner gathering</title>
          <defs>
            <linearGradient id="bg" x1="0" y1="0" x2="0" y2="1">
              <stop offset="0%" stop-color="#0a1f2f" />
              <stop offset="100%" stop-color="#f5a970" />
            </linearGradient>
          </defs>
          <rect width="800" height="600" fill="url(#bg)" />
          <rect y="320" width="800" height="280" fill="#fbe6c8" opacity="0.4" />
          <g transform="translate(400, 410)">
  <ellipse cx="0" cy="0" rx="220" ry="70" fill="rgba(63, 39, 35, 0.6)" />
  <ellipse cx="0" cy="-20" rx="200" ry="60" fill="rgba(255, 244, 214, 0.85)" />
</g>
<circle cx="140" cy="140" r="70" fill="#ffd783" opacity="0.75" />
<path d="M 0 420 Q 100 380 200 420 T 400 420 T 600 420 T 800 420 V 600 H 0 Z" fill="rgba(99, 179, 237, 0.45)" />
<path d="M 0 460 Q 120 430 240 460 T 480 460 T 720 460 T 840 460 V 600 H 0 Z" fill="rgba(56, 189, 248, 0.4)" />
          <g transform="translate(200, 250)">
  <circle cx="0" cy="-70" r="34" fill="#ffd6ec" opacity="0.9" />
  <path d="M -42 60 C -30 10 -18 -30 0 -30 C 18 -30 30 10 42 60 Z" fill="#f472b6" opacity="0.92" />
  <path d="M -50 50 Q 0 -10 50 50 Z" fill="#ffd6ec" opacity="0.6" />
</g>
<g transform="translate(340, 250)">
  <circle cx="0" cy="-70" r="34" fill="#c9fff3" opacity="0.9" />
  <path d="M -42 60 C -30 10 -18 -30 0 -30 C 18 -30 30 10 42 60 Z" fill="#2dd4bf" opacity="0.92" />
  <path d="M -50 50 Q 0 -10 50 50 Z" fill="#c9fff3" opacity="0.6" />
</g>
<g transform="translate(480, 250)">
  <circle cx="0" cy="-70" r="34" fill="#fff3b5" opacity="0.9" />
  <path d="M -42 60 C -30 10 -18 -30 0 -30 C 18 -30 30 10 42 60 Z" fill="#facc15" opacity="0.92" />
  <path d="M -50 50 Q 0 -10 50 50 Z" fill="#fff3b5" opacity="0.6" />
</g>
        </svg>