<svg width="800" height="600" viewBox="0 0 800 600" xmlns="http://www.w3.org/2000/svg" role="img" aria-labelledby="title">
          <title>Night festival crowd</title>
          <defs>
            <linearGradient id="bg" x1="0" y1="0" x2="0" y2="1">
              <stop offset="0%" stop-color="#070318" />
              <stop offset="100%" stop-color="#ff5f6d" />
            </linearGradient>
          </defs>
          <rect width="800" height="600" fill="url(#bg)" />
          <rect y="320" width="800" height="280" fill="#f7cad3" opacity="0.4" />
          <g transform="translate(400, 420)" opacity="0.7">
  <rect x="-260" y="20" width="520" height="60" fill="#1f2937" />
  <rect x="-200" y="-40" width="400" height="60" fill="#312e81" />
</g>
<g opacity="0.4">
  <path d="M 120 0 L 240 0 L 400 300 L 300 300 Z" fill="#60a5fa" />
  <path d="M 680 0 L 560 0 L 400 300 L 500 300 Z" fill="#fbbf24" />
</g>
<g opacity="0.75">
  <rect x="120" y="60" width="6" height="24" fill="#facc15" />
  <rect x="620" y="90" width="6" height="18" fill="#60a5fa" />
  <rect x="300" y="110" width="6" height="20" fill="#fb7185" />
  <rect x="520" y="70" width="6" height="22" fill="#34d399" />
  <rect x="700" y="140" width="6" height="18" fill="#a855f7" />
</g>
          <g transform="translate(200, 250)">
  <circle cx="0" cy="-70" r="34" fill="#e1e3ff" opacity="0.9" />
  <path d="M -42 60 C -30 10 -18 -30 0 -30 C 18 -30 30 10 42 60 Z" fill="#6366f1" opacity="0.92" />
  <path d="M -50 50 Q 0 -10 50 50 Z" fill="#e1e3ff" opacity="0.6" />
</g>
<g transform="translate(340, 250)">
  <circle cx="0" cy="-70" r="34" fill="#ffd9bb" opacity="0.9" />
  <path d="M -42 60 C -30 10 -18 -30 0 -30 C 18 -30 30 10 42 60 Z" fill="#f97316" opacity="0.92" />
  <path d="M -50 50 Q 0 -10 50 50 Z" fill="#ffd9bb" opacity="0.6" />
</g>
<g transform="translate(480, 250)">
  <circle cx="0" cy="-70" r="34" fill="#cbfff4" opacity="0.9" />
  <path d="M -42 60 C -30 10 -18 -30 0 -30 C 18 -30 30 10 42 60 Z" fill="#14b8a6" opacity="0.92" />
  <path d="M -50 50 Q 0 -10 50 50 Z" fill="#cbfff4" opacity="0.6" />
</g>
        </svg>