<svg width="800" height="600" viewBox="0 0 800 600" xmlns="http://www.w3.org/2000/svg" role="img" aria-labelledby="title">
          <title>Rooftop party with fireworks</title>
          <defs>
            <linearGradient id="bg" x1="0" y1="0" x2="0" y2="1">
              <stop offset="0%" stop-color="#030817" />
              <stop offset="100%" stop-color="#f45c7a" />
            </linearGradient>
          </defs>
          <rect width="800" height="600" fill="url(#bg)" />
          <rect y="320" width="800" height="280" fill="#f7d9d7" opacity="0.4" />
          <g fill="rgba(33, 33, 68, 0.7)">
  <rect x="60" y="320" width="80" height="180" />
  <rect x="160" y="360" width="100" height="140" />
  <rect x="320" y="300" width="120" height="200" />
  <rect x="500" y="340" width="140" height="160" />
  <rect x="680" y="320" width="90" height="180" />
</g>
<g stroke="#ffe066" stroke-width="4" opacity="0.8" fill="none">
  <circle cx="160" cy="140" r="30" />
  <path d="M 160 110 L 160 70" />
  <path d="M 130 140 L 90 140" />
  <path d="M 190 140 L 230 140" />
  <path d="M 160 170 L 160 210" />
</g>
<g stroke="#60a5fa" stroke-width="4" opacity="0.8" fill="none">
  <circle cx="600" cy="120" r="36" />
  <path d="M 600 84 L 600 40" />
  <path d="M 564 120 L 520 120" />
  <path d="M 636 120 L 680 120" />
  <path d="M 600 156 L 600 200" />
</g>
<path d="M 60 120 Q 400 40 740 120" stroke="rgba(255, 224, 178, 0.7)" stroke-width="6" fill="none" />
<g fill="#ffe0b2" opacity="0.8">
  <circle cx="160" cy="110" r="16" />
  <circle cx="320" cy="80" r="20" />
  <circle cx="480" cy="90" r="18" />
  <circle cx="640" cy="110" r="16" />
</g>
          <g transform="translate(200, 250)">
  <circle cx="0" cy="-70" r="34" fill="#ffddb7" opacity="0.9" />
  <path d="M -42 60 C -30 10 -18 -30 0 -30 C 18 -30 30 10 42 60 Z" fill="#f97316" opacity="0.92" />
  <path d="M -50 50 Q 0 -10 50 50 Z" fill="#ffddb7" opacity="0.6" />
</g>
<g transform="translate(340, 250)">
  <circle cx="0" cy="-70" r="34" fill="#e0e2ff" opacity="0.9" />
  <path d="M -42 60 C -30 10 -18 -30 0 -30 C 18 -30 30 10 42 60 Z" fill="#6366f1" opacity="0.92" />
  <path d="M -50 50 Q 0 -10 50 50 Z" fill="#e0e2ff" opacity="0.6" />
</g>
<g transform="translate(480, 250)">
  <circle cx="0" cy="-70" r="34" fill="#cbeaff" opacity="0.9" />
  <path d="M -42 60 C -30 10 -18 -30 0 -30 C 18 -30 30 10 42 60 Z" fill="#0ea5e9" opacity="0.92" />
  <path d="M -50 50 Q 0 -10 50 50 Z" fill="#cbeaff" opacity="0.6" />
</g>
        </svg>