<svg width="800" height="600" viewBox="0 0 800 600" xmlns="http://www.w3.org/2000/svg" role="img" aria-labelledby="title">
          <title>Garden dinner gathering</title>
          <defs>
            <linearGradient id="bg" x1="0" y1="0" x2="0" y2="1">
              <stop offset="0%" stop-color="#102523" />
              <stop offset="100%" stop-color="#f0a66f" />
            </linearGradient>
          </defs>
          <rect width="800" height="600" fill="url(#bg)" />
          <rect y="320" width="800" height="280" fill="#f6e1c8" opacity="0.4" />
          <g transform="translate(400, 410)">
  <ellipse cx="0" cy="0" rx="220" ry="70" fill="rgba(63, 39, 35, 0.6)" />
  <ellipse cx="0" cy="-20" rx="200" ry="60" fill="rgba(255, 244, 214, 0.85)" />
</g>
<g fill="#ffd8a8" opacity="0.7">
  <path d="M 140 140 Q 400 60 660 140" stroke="#f5c686" stroke-width="6" fill="none" />
  <circle cx="260" cy="120" r="20" />
  <circle cx="400" cy="90" r="24" />
  <circle cx="540" cy="120" r="18" />
</g>
<g fill="#357960" opacity="0.7">
  <path d="M 40 500 C 120 420 160 520 200 440 C 220 540 160 560 140 600 H 0 Z" />
  <path d="M 600 600 C 620 520 700 520 760 440 C 780 520 760 560 720 600 Z" />
</g>
          <g transform="translate(200, 250)">
  <circle cx="0" cy="-70" r="34" fill="#ffd6e0" opacity="0.9" />
  <path d="M -42 60 C -30 10 -18 -30 0 -30 C 18 -30 30 10 42 60 Z" fill="#f06786" opacity="0.92" />
  <path d="M -50 50 Q 0 -10 50 50 Z" fill="#ffd6e0" opacity="0.6" />
</g>
<g transform="translate(340, 250)">
  <circle cx="0" cy="-70" r="34" fill="#f4fbff" opacity="0.9" />
  <path d="M -42 60 C -30 10 -18 -30 0 -30 C 18 -30 30 10 42 60 Z" fill="#5db0d7" opacity="0.92" />
  <path d="M -50 50 Q 0 -10 50 50 Z" fill="#f4fbff" opacity="0.6" />
</g>
<g transform="translate(480, 250)">
  <circle cx="0" cy="-70" r="34" fill="#fff2c3" opacity="0.9" />
  <path d="M -42 60 C -30 10 -18 -30 0 -30 C 18 -30 30 10 42 60 Z" fill="#f2c85c" opacity="0.92" />
  <path d="M -50 50 Q 0 -10 50 50 Z" fill="#fff2c3" opacity="0.6" />
</g>
        </svg>