<svg width="800" height="600" viewBox="0 0 800 600" xmlns="http://www.w3.org/2000/svg" role="img" aria-labelledby="title">
          <title>Neon bar toast</title>
          <defs>
            <linearGradient id="bg" x1="0" y1="0" x2="0" y2="1">
              <stop offset="0%" stop-color="#050815" />
              <stop offset="100%" stop-color="#ff5c8d" />
            </linearGradient>
          </defs>
          <rect width="800" height="600" fill="url(#bg)" />
          <rect y="320" width="800" height="280" fill="#f6c5dc" opacity="0.4" />
          <g transform="translate(400, 420)">
  <rect x="-260" y="-60" width="520" height="140" fill="rgba(38, 20, 43, 0.7)" rx="30" />
  <rect x="-220" y="-80" width="440" height="40" fill="rgba(255, 224, 200, 0.6)" rx="20" />
</g>
<g opacity="0.7">
  <rect x="240" y="110" width="320" height="120" rx="60" stroke="#ff9edb" stroke-width="10" fill="none" />
  <text x="400" y="190" font-size="60" text-anchor="middle" fill="#ffb4e6" font-family="'Gill Sans', 'Arial', sans-serif">CHEERS</text>
</g>
<g opacity="0.75">
  <rect x="120" y="60" width="6" height="24" fill="#facc15" />
  <rect x="620" y="90" width="6" height="18" fill="#60a5fa" />
  <rect x="300" y="110" width="6" height="20" fill="#fb7185" />
  <rect x="520" y="70" width="6" height="22" fill="#34d399" />
  <rect x="700" y="140" width="6" height="18" fill="#a855f7" />
</g>
          <g transform="translate(200, 250)">
  <circle cx="0" cy="-70" r="34" fill="#d3f7ff" opacity="0.9" />
  <path d="M -42 60 C -30 10 -18 -30 0 -30 C 18 -30 30 10 42 60 Z" fill="#22d3ee" opacity="0.92" />
  <path d="M -50 50 Q 0 -10 50 50 Z" fill="#d3f7ff" opacity="0.6" />
</g>
<g transform="translate(340, 250)">
  <circle cx="0" cy="-70" r="34" fill="#ffdabb" opacity="0.9" />
  <path d="M -42 60 C -30 10 -18 -30 0 -30 C 18 -30 30 10 42 60 Z" fill="#f97316" opacity="0.92" />
  <path d="M -50 50 Q 0 -10 50 50 Z" fill="#ffdabb" opacity="0.6" />
</g>
<g transform="translate(480, 250)">
  <circle cx="0" cy="-70" r="34" fill="#ecd7ff" opacity="0.9" />
  <path d="M -42 60 C -30 10 -18 -30 0 -30 C 18 -30 30 10 42 60 Z" fill="#a855f7" opacity="0.92" />
  <path d="M -50 50 Q 0 -10 50 50 Z" fill="#ecd7ff" opacity="0.6" />
</g>
        </svg>