<svg width="800" height="600" viewBox="0 0 800 600" xmlns="http://www.w3.org/2000/svg" role="img" aria-labelledby="title">
          <title>Poolside evening celebration</title>
          <defs>
            <linearGradient id="bg" x1="0" y1="0" x2="0" y2="1">
              <stop offset="0%" stop-color="#021526" />
              <stop offset="100%" stop-color="#5fd1fb" />
            </linearGradient>
          </defs>
          <rect width="800" height="600" fill="url(#bg)" />
          <rect y="320" width="800" height="280" fill="#c8f3ff" opacity="0.4" />
          <ellipse cx="200" cy="460" rx="180" ry="70" fill="rgba(56, 189, 248, 0.5)" />
<ellipse cx="200" cy="470" rx="150" ry="50" fill="rgba(14, 165, 233, 0.45)" />
<g transform="translate(620, 240)">
  <rect x="-8" y="0" width="16" height="220" fill="#4f2c1d" />
  <path d="M 0 0 C 80 -40 120 -10 140 40 C 60 20 20 40 0 0 Z" fill="#1acaa1" opacity="0.7" />
  <path d="M 0 20 C 70 -10 110 20 130 70 C 50 40 20 60 0 20 Z" fill="#25f5c7" opacity="0.6" />
</g>
<g fill="#ffd8a8" opacity="0.7">
  <path d="M 140 140 Q 400 60 660 140" stroke="#f5c686" stroke-width="6" fill="none" />
  <circle cx="260" cy="120" r="20" />
  <circle cx="400" cy="90" r="24" />
  <circle cx="540" cy="120" r="18" />
</g>
          <g transform="translate(200, 250)">
  <circle cx="0" cy="-70" r="34" fill="#ffd6f0" opacity="0.9" />
  <path d="M -42 60 C -30 10 -18 -30 0 -30 C 18 -30 30 10 42 60 Z" fill="#f472b6" opacity="0.92" />
  <path d="M -50 50 Q 0 -10 50 50 Z" fill="#ffd6f0" opacity="0.6" />
</g>
<g transform="translate(340, 250)">
  <circle cx="0" cy="-70" r="34" fill="#d8f2ff" opacity="0.9" />
  <path d="M -42 60 C -30 10 -18 -30 0 -30 C 18 -30 30 10 42 60 Z" fill="#38bdf8" opacity="0.92" />
  <path d="M -50 50 Q 0 -10 50 50 Z" fill="#d8f2ff" opacity="0.6" />
</g>
<g transform="translate(480, 250)">
  <circle cx="0" cy="-70" r="34" fill="#fff6b7" opacity="0.9" />
  <path d="M -42 60 C -30 10 -18 -30 0 -30 C 18 -30 30 10 42 60 Z" fill="#facc15" opacity="0.92" />
  <path d="M -50 50 Q 0 -10 50 50 Z" fill="#fff6b7" opacity="0.6" />
</g>
        </svg>