<svg width="800" height="600" viewBox="0 0 800 600" xmlns="http://www.w3.org/2000/svg" role="img" aria-labelledby="title">
          <title>Speakeasy cocktail hour</title>
          <defs>
            <linearGradient id="bg" x1="0" y1="0" x2="0" y2="1">
              <stop offset="0%" stop-color="#120c1d" />
              <stop offset="100%" stop-color="#f47583" />
            </linearGradient>
          </defs>
          <rect width="800" height="600" fill="url(#bg)" />
          <rect y="320" width="800" height="280" fill="#f9d3c4" opacity="0.4" />
          <g transform="translate(400, 420)">
  <rect x="-260" y="-60" width="520" height="140" fill="rgba(38, 20, 43, 0.7)" rx="30" />
  <rect x="-220" y="-80" width="440" height="40" fill="rgba(255, 224, 200, 0.6)" rx="20" />
</g>
<g fill="#ffd7a8" opacity="0.7">
  <path d="M 200 120 L 200 220" stroke="#ffd7a8" stroke-width="4" />
  <ellipse cx="200" cy="240" rx="24" ry="16" />
  <path d="M 600 120 L 600 220" stroke="#ffd7a8" stroke-width="4" />
  <ellipse cx="600" cy="240" rx="24" ry="16" />
</g>
<g transform="translate(400, 320)" opacity="0.8">
  <path d="M -120 0 L -100 0 L -96 -40 L -104 -40 Z" fill="#66d9e8" />
  <path d="M -20 0 L 0 0 L 6 -36 L -6 -36 Z" fill="#ff99c8" />
  <path d="M 80 0 L 96 0 L 102 -44 L 74 -44 Z" fill="#f6d365" />
</g>
          <g transform="translate(200, 250)">
  <circle cx="0" cy="-70" r="34" fill="#ffd8e3" opacity="0.9" />
  <path d="M -42 60 C -30 10 -18 -30 0 -30 C 18 -30 30 10 42 60 Z" fill="#f06f86" opacity="0.92" />
  <path d="M -50 50 Q 0 -10 50 50 Z" fill="#ffd8e3" opacity="0.6" />
</g>
<g transform="translate(340, 250)">
  <circle cx="0" cy="-70" r="34" fill="#e2e4ff" opacity="0.9" />
  <path d="M -42 60 C -30 10 -18 -30 0 -30 C 18 -30 30 10 42 60 Z" fill="#6f70f5" opacity="0.92" />
  <path d="M -50 50 Q 0 -10 50 50 Z" fill="#e2e4ff" opacity="0.6" />
</g>
<g transform="translate(480, 250)">
  <circle cx="0" cy="-70" r="34" fill="#fff2c7" opacity="0.9" />
  <path d="M -42 60 C -30 10 -18 -30 0 -30 C 18 -30 30 10 42 60 Z" fill="#f7c15e" opacity="0.92" />
  <path d="M -50 50 Q 0 -10 50 50 Z" fill="#fff2c7" opacity="0.6" />
</g>
        </svg>