<svg width="800" height="600" viewBox="0 0 800 600" xmlns="http://www.w3.org/2000/svg" role="img" aria-labelledby="title">
          <title>Tropical beach dancing</title>
          <defs>
            <linearGradient id="bg" x1="0" y1="0" x2="0" y2="1">
              <stop offset="0%" stop-color="#041b2d" />
              <stop offset="100%" stop-color="#ff9966" />
            </linearGradient>
          </defs>
          <rect width="800" height="600" fill="url(#bg)" />
          <rect y="320" width="800" height="280" fill="#ffe0b2" opacity="0.4" />
          <g transform="translate(620, 240)">
  <rect x="-8" y="0" width="16" height="220" fill="#4f2c1d" />
  <path d="M 0 0 C 80 -40 120 -10 140 40 C 60 20 20 40 0 0 Z" fill="#1acaa1" opacity="0.7" />
  <path d="M 0 20 C 70 -10 110 20 130 70 C 50 40 20 60 0 20 Z" fill="#25f5c7" opacity="0.6" />
</g>
<path d="M 0 420 Q 100 380 200 420 T 400 420 T 600 420 T 800 420 V 600 H 0 Z" fill="rgba(99, 179, 237, 0.45)" />
<path d="M 0 460 Q 120 430 240 460 T 480 460 T 720 460 T 840 460 V 600 H 0 Z" fill="rgba(56, 189, 248, 0.4)" />
<g opacity="0.75">
  <rect x="120" y="60" width="6" height="24" fill="#facc15" />
  <rect x="620" y="90" width="6" height="18" fill="#60a5fa" />
  <rect x="300" y="110" width="6" height="20" fill="#fb7185" />
  <rect x="520" y="70" width="6" height="22" fill="#34d399" />
  <rect x="700" y="140" width="6" height="18" fill="#a855f7" />
</g>
          <g transform="translate(200, 250)">
  <circle cx="0" cy="-70" r="34" fill="#ffd0dc" opacity="0.9" />
  <path d="M -42 60 C -30 10 -18 -30 0 -30 C 18 -30 30 10 42 60 Z" fill="#fb7185" opacity="0.92" />
  <path d="M -50 50 Q 0 -10 50 50 Z" fill="#ffd0dc" opacity="0.6" />
</g>
<g transform="translate(340, 250)">
  <circle cx="0" cy="-70" r="34" fill="#d4ffe7" opacity="0.9" />
  <path d="M -42 60 C -30 10 -18 -30 0 -30 C 18 -30 30 10 42 60 Z" fill="#34d399" opacity="0.92" />
  <path d="M -50 50 Q 0 -10 50 50 Z" fill="#d4ffe7" opacity="0.6" />
</g>
<g transform="translate(480, 250)">
  <circle cx="0" cy="-70" r="34" fill="#d0f1ff" opacity="0.9" />
  <path d="M -42 60 C -30 10 -18 -30 0 -30 C 18 -30 30 10 42 60 Z" fill="#38bdf8" opacity="0.92" />
  <path d="M -50 50 Q 0 -10 50 50 Z" fill="#d0f1ff" opacity="0.6" />
</g>
        </svg>