<svg width="800" height="600" viewBox="0 0 800 600" xmlns="http://www.w3.org/2000/svg" role="img" aria-labelledby="title">
          <title>Elegant white terrace party</title>
          <defs>
            <linearGradient id="bg" x1="0" y1="0" x2="0" y2="1">
              <stop offset="0%" stop-color="#0f172a" />
              <stop offset="100%" stop-color="#f5e0d3" />
            </linearGradient>
          </defs>
          <rect width="800" height="600" fill="url(#bg)" />
          <rect y="320" width="800" height="280" fill="#ffffff" opacity="0.4" />
          <path d="M 0 420 Q 200 360 400 420 T 800 420 V 600 H 0 Z" fill="rgba(255, 255, 255, 0.6)" />
<path d="M 0 380 Q 200 320 400 380 T 800 380" stroke="rgba(148, 163, 184, 0.6)" stroke-width="6" fill="none" />
<path d="M 60 120 Q 400 40 740 120" stroke="rgba(255, 224, 178, 0.7)" stroke-width="6" fill="none" />
<g fill="#ffe0b2" opacity="0.8">
  <circle cx="160" cy="110" r="16" />
  <circle cx="320" cy="80" r="20" />
  <circle cx="480" cy="90" r="18" />
  <circle cx="640" cy="110" r="16" />
</g>
<g transform="translate(620, 240)">
  <rect x="-8" y="0" width="16" height="220" fill="#4f2c1d" />
  <path d="M 0 0 C 80 -40 120 -10 140 40 C 60 20 20 40 0 0 Z" fill="#1acaa1" opacity="0.7" />
  <path d="M 0 20 C 70 -10 110 20 130 70 C 50 40 20 60 0 20 Z" fill="#25f5c7" opacity="0.6" />
</g>
          <g transform="translate(200, 250)">
  <circle cx="0" cy="-70" r="34" fill="#ffe4f3" opacity="0.9" />
  <path d="M -42 60 C -30 10 -18 -30 0 -30 C 18 -30 30 10 42 60 Z" fill="#f9a8d4" opacity="0.92" />
  <path d="M -50 50 Q 0 -10 50 50 Z" fill="#ffe4f3" opacity="0.6" />
</g>
<g transform="translate(340, 250)">
  <circle cx="0" cy="-70" r="34" fill="#e8ecff" opacity="0.9" />
  <path d="M -42 60 C -30 10 -18 -30 0 -30 C 18 -30 30 10 42 60 Z" fill="#a5b4fc" opacity="0.92" />
  <path d="M -50 50 Q 0 -10 50 50 Z" fill="#e8ecff" opacity="0.6" />
</g>
<g transform="translate(480, 250)">
  <circle cx="0" cy="-70" r="34" fill="#fff6cc" opacity="0.9" />
  <path d="M -42 60 C -30 10 -18 -30 0 -30 C 18 -30 30 10 42 60 Z" fill="#fde68a" opacity="0.92" />
  <path d="M -50 50 Q 0 -10 50 50 Z" fill="#fff6cc" opacity="0.6" />
</g>
        </svg>